<svg xmlns="http://www.w3.org/2000/svg" width="61" height="67" viewBox="0 0 60.9 67"><g transform="matrix(0.2 0 0 0.2 -5.2852643 -1.9524068)"><path d="m330.7 10.3c2.5 11.3-6.9 19.2 0 26-1.6 4.3-6.5 5.4-9.5 8.3 0.9 8-3.4 10.8-8.3 13 0 6.5-2.4 10.6-5.9 13.6 0.5 15-6.6 22.5-14.2 29.6 3.8 11.9 11.3 21.7 15.4 33.7 20.5 59.8-5.9 121.8-38.4 153.1-12 11.5-30.3 21.4-46.1 29-0.5 4.6-1.6 8.7-1.2 14.2-0.6 3.1-5.1 2.4-5.9 5.3-0.7 3.3 4.6 3.6 3 5.9-3.4-0.1-7.2 1.9-11.8 2.4-1.2-2.9 0-8.2-3.5-8.9-2.9 1.8 0.3 6-0.6 9.5-5.6-2.7-6.3-12.5-4.1-19.5-3.2-6.3-7.5 1.2-13 2.4-3.9 0.9-5.1-2.3-8.3 0.6-6.6-1.3-12.5-3.3-22.5-4.1-6.2-0.5-13.2 0.2-17.7-1.2-3.9-1.1-6.8-4.8-10.1-4.7-3 0-7.1 2.8-8.9 4.1-2.9-3.1-5-1.3-7.1-0.6-4.8-0.7-3.5-7.5-5.3-11.2C75 293.7 51 269.1 36.9 233.1 29.8 215.1 25 197.4 26.8 171.7 31.1 111.3 62 68 107.2 45.7c15.2-7.5 34.5-13.9 53.2-15.4 19-1.5 40.3 4.7 54.4 9.5 6.1 2.1 13.9 4.2 20.7 7.7 5 2.6 13.2 10.7 17.7 10.6 5.6-0.1 5.8-5.7 8.9-9.5 3.1-0.4 5.1 0.4 7.7 0.6 0.6-18.6 14.9-23.4 27.8-29.6 2.7-0.4 3.4 1.3 5.9 1.2 2.5-1 2.7-4.4 4.1-6.5 6-2.7 14.6-5.9 23.1-4.1zM206.6 39.8c-5.8-1.6-12.2-3.6-17.7-4.1-67.3-6.9-111.1 28.6-137.8 68.6-3.5 5.3-8 10.6-10.1 16-6.8 17.6-11.7 41.5-11.2 65 0.6 28.8 12 57.5 24.8 75.1 9 12.4 22.9 28.7 36.7 37.8 3.8 2.5 12.8 9.3 16.6 8.9 3.5-0.4 5.6-5.1 9.5-7.1 4.2-2.2 7.6-2.2 11.2-4.7 0.1-26.5-3-49.8-7.1-72.1 3.7-6.6 0.6-14.6-6.5-15.4-1.5-1.9-1.4-6.8-5.9-6.5-9.2 0.6-2.6 23.4-12.4 26-7.9 2.1-18.9-8-12.4-14.2 1.8 5.9 11.7 4 10.1-3.5 6.7-0.1 11.9-12 6.5-16.6-3.7 1.2-2.9 3.9-5.3 5.9-3.5 2.8-7.4 1.6-11.8 3-2.6 0.8-4.8 3.8-7.7 4.1-10.2 1.1-13.7-12.9-24.2-11.2-9-5.7 2-15.2 0-25.4-0.8-4.2-4.7-7.9-5.3-13-0.9-7.5-0.7-14.1 4.1-18.9 5.9 2.9 5.3 12.4 11.8 14.8 4.6-2.7 6.1-6.1 11.2-7.7 5.4-1.7 12.1 0 17.1-2.4 10.5-5 6.5-22.2 18.3-26 1 5.2 2.5 12.2 3 18.9 0.5 6.6-1.6 13.4 1.2 17.7 7.6-6.2 8.4-19.2 10.1-31.3 1.2-1.9 3.8-2.6 5.3-4.1 6.1-25.1 29.1-33.2 43.8-49.7 0.8 9.9 8.6 6.2 13.6 2.4 5.4 4.5 9.2-1.9 16-1.2 1.2 13.4 11.7 17.4 21.9 21.9 2.6 5.3 2.5 13.2 2.4 21.3 2.7 4.2 4.2 9.6 6.5 14.2 6.6-3.2 2.5-10.9 3-17.1 0.2-3.1 2.7-6.3 3-9.5 0.5-5.5-2.3-10.9-1.8-16.6 2.2-1.1 3.9 1 7.1 0.6 1-8.3 5.2-13.3 6.5-21.3C239.3 51.9 223.7 44.4 206.6 39.8zm75.1 229.4c19.7-23 30.8-56 29-95.8-1.2-26.3-6.6-53.3-22.5-66.2-2.6 4.9-9.6 5.4-11.2 11.2-2.9 0.2-5.5-1.6-7.1 0.6 11 11.9-9.3 23.8-17.1 27.8-1.5 5.4-10.8 14.4-11.8 20.1-0.3 1.7 1.3 3.6 1.2 5.3-0.3 3-3.8 5.1-4.1 7.7-0.7 5.8 3.6 9.3 7.7 13-5.2 3.3-8.8 8.1-11.2 14.2-0.8 0.7 0.7 4 1.2 5.3-3.9 1.9-3.9 9.5-6.5 14.2-1.3 2.5-4.5 3.2-4.7 5.9-0.2 2.4 2.4 4.1 2.4 6.5-5.3 3-4.8 8.9 0.6 11.8-9 7 3.6 13 4.7 18.3 0.8 3.7-1.5 6-2.4 9.5-2.5 9.6-4.3 21.6-4.7 31.9 22.7-6 41.3-23.3 56.8-41.4zM104.3 164c-0.3-3.9-7.1-4.3-10.6-3-4.2 1.6-9.9 8.9-8.3 13.6 3.6-2.1 19.3-5.6 18.9-10.6zm-33.7 13.6c-0.6-5.7-13.1-7.3-13 1.8 3.2 4.6 13.7 5.1 13-1.8zm24.8 4.1c-7-0.4-6.9 9.6-14.8 11.2-5 1-7.3-2.2-13 0.6-1.2 5.2 3.6 9.5 8.9 8.3 3.3-0.8 2.9-4.5 5.9-5.3 9.4 10.1 26.5-14 13-14.8zm-20.1 6.5c1.8 3.7 6.8 1.7 9.5 0 0-1.6 0-3.2 0-4.7-4.2 0.5-8.9 0.6-9.5 4.7zm88.7 63.9c-6 4.3-5.5 13.7-6.5 24.8-0.6 6.5-2.8 14.2-2.4 18.3 0.2 2.4 2.5 4.2 3 7.1 0.8 4.7-0.3 9.2 0 13-2.9 0.2-4.2-3.3-7.1-1.2-2.4 8.9 9.7 8.4 17.1 9.5 4.9-3.6 4.5-12.4 10.1-15.4 4.2 0.2 7.7-0.2 10.6-1.2 5.4-17.6 4.9-35.5 0.6-51.4-2.4-8.7-8-15.9-10.6-23.6-3.3-9.7-5.1-18-7.1-27.8-0.6 0-1.2 0-1.8 0 1 18.5-9.1 30.9-5.9 47.9zM142.1 289.9c0-7.9 2.9-17.6 3.5-27.8 1.1-16.9 5.4-40.6-1.2-52.6-0.6 0-1.2 0-1.8 0-2.9 8.8-5.8 24-4.7 35.5 0.3 3.6 1.8 6.9 1.8 10.6-0.3 17-3.1 33.1-2.4 47.9 2.7 0.5 3.4-1 5.3-1.2 2.2-3.9-0.6-8-0.6-12.4zM90.1 221.3c3.9 3.9 11.5-2.2 7.1-6.5-2.4 2.1-6.7 2.4-7.1 6.5zm117.1 47.9c0.5 4-1.5 9.3-3 14.8-2.4 8.8-4.6 15.9-5.3 23.6-0.8 9.2-3.8 8.7-7.1 13.6 7.6 0.7 17.2-1.1 23.1-4.1 2.1-22.9-0.5-51.1-11.8-64.4-0.4 0-0.8 0-1.2 0-1.3 5.7 4.6 10.4 5.3 16.6zm-81 43.2c-0.4 3.9 3.4 5.5 6.5 4.1 2.1-4-3.5-6.7-6.5-4.1zm18.3 7.7c1.9 1.1 3 1.1 5.3 0.6 0.9-4.7-6.4-6.9-5.3-0.6z"/><path d="m58.2 200c-0.2 2.4 2 2.3 3 3.5-3.9 4.8-11.7 5.7-17.7 8.3 1.1-5 9.2-3 10.6-7.7-1.2-2.8-6.1 1.9-8.3 0 3-2.5 7.2-3.8 12.4-4.1z"/><path d="m64.7 205.9c5.3-0.5 6.5 5.7 4.1 9.5-2.4-0.2-2.6-2.6-4.1-3.5-3.2 1.3-2.2 6.9-6.5 7.1-0.8-5 3.2-10.2 6.5-13z"/></g></svg>